<svg aria-hidden="true" style="position:absolute;width:0;height:0;overflow:hidden" xmlns="http://www.w3.org/2000/svg"><defs><symbol id="facebook" viewBox="0 0 32 32"><path d="M21.329 5.313h2.921V.225C23.746.156 22.013 0 19.994 0c-4.212 0-7.097 2.649-7.097 7.519V12H8.249v5.688h4.648V32h5.699V17.689h4.46l.708-5.688h-5.169V8.082c.001-1.644.444-2.769 2.735-2.769z"/></symbol><symbol id="instagram" viewBox="0 0 32 32"><path d="M31.969 9.408c-.075-1.7-.35-2.869-.744-3.882a7.803 7.803 0 0 0-1.85-2.838A7.867 7.867 0 0 0 26.543.844C25.524.45 24.361.175 22.661.1 20.948.019 20.404 0 16.06 0s-4.888.019-6.595.094c-1.7.075-2.869.35-3.882.744a7.803 7.803 0 0 0-2.838 1.85A7.867 7.867 0 0 0 .901 5.52C.507 6.539.232 7.702.157 9.402c-.081 1.713-.1 2.257-.1 6.601s.019 4.888.094 6.595c.075 1.7.35 2.869.744 3.882a7.895 7.895 0 0 0 1.85 2.838 7.867 7.867 0 0 0 2.832 1.844c1.019.394 2.182.669 3.882.744 1.706.075 2.25.094 6.595.094s4.888-.019 6.595-.094c1.7-.075 2.869-.35 3.882-.744a8.184 8.184 0 0 0 4.682-4.682c.394-1.019.669-2.182.744-3.882.075-1.707.094-2.251.094-6.595s-.006-4.888-.081-6.595zm-2.882 13.065c-.069 1.563-.331 2.407-.55 2.969a5.31 5.31 0 0 1-3.038 3.038c-.563.219-1.413.481-2.969.55-1.688.075-2.194.094-6.464.094s-4.782-.019-6.464-.094c-1.563-.069-2.407-.331-2.969-.55a4.926 4.926 0 0 1-1.838-1.194 4.974 4.974 0 0 1-1.194-1.838c-.219-.563-.481-1.413-.55-2.969-.075-1.688-.094-2.194-.094-6.464s.019-4.782.094-6.464c.069-1.563.331-2.407.55-2.969a4.868 4.868 0 0 1 1.2-1.838A4.974 4.974 0 0 1 6.639 3.55c.563-.219 1.413-.481 2.969-.55 1.688-.075 2.194-.094 6.464-.094 4.276 0 4.782.019 6.464.094 1.563.069 2.407.331 2.969.55a4.914 4.914 0 0 1 1.838 1.194 4.974 4.974 0 0 1 1.194 1.838c.219.563.481 1.413.55 2.969.075 1.688.094 2.194.094 6.464s-.019 4.77-.094 6.458z"/><path d="M16.059 7.783c-4.538 0-8.22 3.682-8.22 8.22s3.682 8.22 8.22 8.22 8.22-3.682 8.22-8.22-3.682-8.22-8.22-8.22zm0 13.552a5.333 5.333 0 0 1 0-10.664 5.333 5.333 0 0 1 0 10.664zM26.524 7.458a1.919 1.919 0 1 1-3.838 0 1.919 1.919 0 0 1 3.838 0z"/></symbol><symbol id="linkedin" viewBox="0 0 32 32"><path d="M31.992 32v-.001H32V20.263c0-5.741-1.236-10.164-7.948-10.164-3.227 0-5.392 1.771-6.276 3.449h-.093v-2.913h-6.364v21.364h6.627V21.42c0-2.785.528-5.479 3.977-5.479 3.399 0 3.449 3.179 3.449 5.657v10.401h6.62zM.528 10.636h6.635V32H.528V10.636zM3.843 0C1.722 0 0 1.721 0 3.843s1.721 3.879 3.843 3.879c2.121 0 3.843-1.757 3.843-3.879A3.846 3.846 0 0 0 3.843 0z"/></symbol><symbol id="twitter" viewBox="0 0 32 32"><path d="M32 6.078c-1.19.522-2.458.868-3.78 1.036a6.523 6.523 0 0 0 2.886-3.626 13.11 13.11 0 0 1-4.16 1.588A6.574 6.574 0 0 0 22.154 3c-3.632 0-6.556 2.948-6.556 6.562 0 .52.044 1.02.152 1.496-5.454-.266-10.28-2.88-13.522-6.862a6.605 6.605 0 0 0-.898 3.316 6.57 6.57 0 0 0 2.914 5.452 6.479 6.479 0 0 1-2.964-.808v.072c0 3.188 2.274 5.836 5.256 6.446a6.548 6.548 0 0 1-1.72.216 5.8 5.8 0 0 1-1.242-.112c.85 2.598 3.262 4.508 6.13 4.57a13.182 13.182 0 0 1-8.134 2.798c-.538 0-1.054-.024-1.57-.09A18.469 18.469 0 0 0 10.064 29c12.072 0 18.672-10 18.672-18.668 0-.29-.01-.57-.024-.848A13.087 13.087 0 0 0 32 6.078z"/></symbol>
<symbol id="location" viewBox="0 0 32 32"><path d="M14.75.069c-1.262.144-2.475.5-3.656 1.081-2.35 1.156-4.1 2.912-5.219 5.244-2.038 4.225-1.313 8.769 2.394 14.981 1.056 1.769 2.037 3.231 4.512 6.719A838.43 838.43 0 0 1 14.825 31c.563.819.775 1 1.175 1s.613-.181 1.175-1c.3-.431 1.219-1.738 2.044-2.906 2.425-3.413 3.494-5.006 4.525-6.744 3.331-5.606 4.212-9.688 2.938-13.631-.238-.731-.881-2.037-1.363-2.75-2.3-3.438-6.456-5.362-10.569-4.9zm3.094 1.994c4.256.894 7.313 4.463 7.512 8.781.1 2.081-.525 4.381-1.981 7.281-1.144 2.281-2.406 4.262-5.75 8.988-.875 1.244-1.606 2.256-1.625 2.256s-.194-.231-.387-.512c-.194-.281-.963-1.369-1.706-2.419-1.475-2.075-2.944-4.244-3.637-5.375-2.594-4.225-3.756-7.494-3.625-10.219.162-3.419 2.088-6.394 5.169-7.963.938-.481 1.944-.788 3.063-.944.662-.094 2.256-.025 2.969.125z"/><path d="M14.875 5.744a5.687 5.687 0 0 0-4.319 4.1c-.113.406-.137.669-.137 1.406s.025 1 .137 1.406a5.725 5.725 0 0 0 4.175 4.075c.644.163 2.019.144 2.675-.038a5.696 5.696 0 0 0 4.038-4.037c.113-.406.137-.669.137-1.406s-.025-1-.137-1.406c-.538-1.987-2.075-3.525-4.038-4.037-.725-.188-1.838-.219-2.531-.063zM16.9 7.625c.706.181 1.188.456 1.725 1 .544.537.819 1.019 1 1.725a3.786 3.786 0 0 1-.325 2.669c-.275.512-1.031 1.269-1.531 1.531a3.752 3.752 0 0 1-2.669.325c-.694-.175-1.181-.456-1.725-1-.544-.537-.819-1.012-1-1.725a3.752 3.752 0 0 1 .325-2.669c.262-.5 1.019-1.256 1.531-1.531a3.748 3.748 0 0 1 2.669-.325z"/></symbol><symbol id="email" viewBox="0 0 32 32"><path d="M1.206 5.4C.618 5.588.2 6.012.062 6.569c-.044.194-.063 3.05-.05 9.587l.019 9.313.188.337c.106.188.3.419.431.519.537.387-.506.363 15.35.363s14.813.025 15.35-.363c.131-.1.331-.331.431-.519l.188-.337V6.531l-.188-.338c-.1-.188-.3-.419-.431-.519-.538-.388.512-.362-15.375-.356-11.75 0-14.556.019-14.769.081zm28.419 1.25c-.05.044-2.969 2.237-6.481 4.869-4.281 3.213-6.463 4.806-6.625 4.85a2.093 2.093 0 0 1-1.037 0c-.162-.044-2.344-1.637-6.625-4.85A1570.056 1570.056 0 0 1 2.376 6.65c-.075-.075 1.962-.088 13.625-.088s13.7.013 13.625.088zM8 12.406c3.625 2.719 6.713 4.994 6.863 5.05.15.063.463.144.7.181.525.087 1.169 0 1.656-.225.169-.081 3.281-2.375 6.906-5.094l6.594-4.95.019 4.281c.006 2.356.006 6.212 0 8.563l-.019 4.281-3.469-4.281c-1.906-2.356-3.512-4.313-3.569-4.344-.169-.088-.481-.069-.65.044a.672.672 0 0 0-.244.631c.025.087 1.625 2.119 3.563 4.512l3.525 4.35-6.938.019c-3.819.006-10.056.006-13.875 0l-6.938-.019 3.525-4.35c1.938-2.394 3.537-4.425 3.563-4.512a.672.672 0 0 0-.244-.631.807.807 0 0 0-.625-.063c-.05.025-1.65 1.956-3.544 4.3a6529.33 6529.33 0 0 0-3.494 4.313c-.031.038-.056-3.65-.056-8.519 0-6.844.019-8.569.081-8.531.038.031 3.044 2.275 6.669 4.994z"/></symbol><symbol id="telephone" viewBox="0 0 32 32"><path d="M5.725.094C5.219.225 4.7.513 4.169.969c-.587.506-2.694 2.65-3.038 3.094-1.394 1.781-1.419 4.55-.069 8.125 1.644 4.369 4.725 8.794 8.625 12.387 5.375 4.956 12.575 8.162 16.281 7.262.55-.131 1.462-.556 1.881-.875.425-.319 3.25-3.219 3.512-3.6.488-.706.675-1.65.488-2.45-.212-.894-.281-.975-3-3.7-2.744-2.744-2.831-2.813-3.738-3-.719-.15-1.45-.019-2.156.387-.163.1-.938.806-1.719 1.581l-1.419 1.4-.456-.238c-1.119-.581-1.944-1.137-3.175-2.15-1.262-1.038-3.025-2.856-4-4.131-.706-.925-1.744-2.631-1.75-2.862 0-.044.488-.556 1.081-1.137 1.25-1.219 1.744-1.787 2.025-2.325.35-.681.419-1.544.175-2.256-.244-.725-.481-1-2.869-3.394C8.485.725 8.123.412 7.448.181 6.979.012 6.204-.025 5.723.094zm1.45 1.756c.175.1 1.175 1.044 2.519 2.394 2.431 2.438 2.525 2.55 2.519 3.194 0 .569-.15.769-1.781 2.4-.825.819-1.544 1.575-1.594 1.681-.075.131-.094.313-.075.619.019.375.069.519.45 1.275.863 1.713 2 3.219 3.881 5.144 1.869 1.913 3.731 3.337 5.65 4.325.681.35.813.4 1.125.394.212 0 .438-.044.569-.113.119-.063.894-.788 1.719-1.606 1.063-1.056 1.581-1.525 1.781-1.613.375-.169.863-.169 1.206 0 .375.188 4.794 4.6 4.988 4.988.106.206.15.394.15.663 0 .644-.131.819-1.906 2.6-1.756 1.762-1.919 1.881-2.856 2.094-.906.2-2.425.038-3.962-.419-2.344-.694-5.494-2.356-8.088-4.269-4.994-3.675-9.281-9.294-11.063-14.488-.85-2.469-.944-4.237-.294-5.55.2-.419.388-.631 1.688-1.95.8-.813 1.569-1.55 1.7-1.644.563-.387 1.138-.431 1.675-.119z"/></symbol>
<symbol id="icon-close-modal" viewBox="0 0 32 32">
<path d="M26.667 7.303l-1.97-1.97-7.808 7.808-7.808-7.808-1.97 1.97 7.808 7.808-7.808 7.808 1.97 1.97 7.808-7.808 7.808 7.808 1.97-1.97-7.808-7.808 7.808-7.808z"></path>
</symbol>
<symbol id="icon-menu" viewBox="0 0 48 32">
<path d="M0 5.333v-5.333h48v5.333h-48zM0 18.667h48v-5.333h-48v5.333zM0 32h48v-5.333h-48v5.333z"></path>
</symbol></defs></svg>